<svg xmlns="http://www.w3.org/2000/svg" viewBox="0 0 1758 693"><path d="M472.3 137c-16.9 1-30.9 5.4-38.6 12.2-2.8 2.4-4.4 5.1-6.2 10.3-2.1 6.3-2.4 9.4-3.1 32.4l-.7 25.3-4.1-.6c-10.8-1.8-17.8-2.3-24.1-1.9-4.3.3-9.4-.1-13-1-4.2-1-6.8-1.1-8.5-.4-3.5 1.3-33 3-48.7 2.7-7.3-.1-13.3.1-13.3.4s1.8 1.5 4 2.6c2.6 1.3 4.2 3 4.7 4.8 1 3.4 1 61.7.1 89.6-.6 18.3-.9 21-2.5 22.2-1 .7-2.1 1.4-2.5 1.4s-1.2.9-1.8 2c-.9 1.7-.6 2.2 2.6 3.7l3.7 1.8-.8 51.5c-.4 28.3-.9 53.4-1 55.8l-.2 4.3-6.1.3c-5.8.2-9.2 1.7-9.2 3.8 0 .6 2.4.9 6 .6 6-.4 7.4.4 4.9 2.9-.6.6-.7 1.3-.2 1.6.5.4 11.7-.1 24.9-.9 13.1-.9 26.4-1.6 29.4-1.6 6.7-.1 42.7-2.6 49.3-3.4 5.9-.7 7.3-2.1 9.3-9.2.9-3.1 1.8-5.8 1.9-6 .2-.2 3.8 1.5 8.1 3.7 4.4 2.2 10.5 4.9 13.6 6.1 3.2 1.2 6 2.6 6.4 3.1 1.1 1.8-1.7 3.7-8 5.3-13.2 3.3-18.3 6.7-22.4 14.8-2.9 5.8-4.6 27.4-4 49.8.5 17.8 1.3 20.7 7.4 27.9 4 4.8 6.9 5.8 21.5 7.5 32.9 3.8 83.5 4.4 97.7 1.2 6.6-1.4 15.4-8.3 18.2-14.1 4.3-8.9 5.5-60.2 1.7-70.4-2.7-6.9-2.4-8.1 2.2-8.1 4 0 18.5 5.2 20.9 7.4.9.9 1.4 7.3 1.9 22.9.4 13.8 1 22 1.7 22.6 2 1.6 7.8 1.8 14.3.6 7.4-1.4 59.6-.4 104.8 1.9 15.4.8 36.1 1.5 46 1.5s38 .6 62.5 1.3c54.3 1.5 60.1 1.5 76.3.2 12.5-1 13-1.2 22.2-5.9 5.2-2.7 9.6-4.7 9.8-4.4.2.2.8 2 1.3 3.9l1 3.5 12.6.3 12.6.3.6-3.1c.3-1.6.8-4.3 1.2-5.9.4-2.6 1.1-3 6.2-3.9 3.1-.6 7.6-1.4 10-1.7 2.3-.3 6.8-2.2 10.2-4.3 18.7-11.7 23.6-15 27.6-18.5 4.8-4.2 14.4-19.4 16.9-26.7 2-5.8 11.6-14.5 24.5-22.2 11-6.5 14.3-9.6 13.8-13-.3-2.2-.6-2.3-8.2-2-7.1.2-8.3.5-10.8 2.9-2.3 2.2-2.8 2.3-2.8 1 0-1 1.2-3.5 2.6-5.6 1.7-2.6 2.7-5.8 3-9.7.9-9.8 1-10 5.6-11.3 7.3-1.9 26-5.9 32.8-7.1 14.4-2.4 24.6-4 26.6-4 1.3 0 4.1 2.5 8 7.2 3.2 4 9.6 11.3 14.1 16.3 11.5 12.6 24.7 29.8 28.7 37.5 2.7 5 6.6 18.5 6.6 22.5 0 .3-3.1.5-7 .5-3.8 0-7 .4-7 1 0 .5-1.8 1.5-4.1 2.1-4.6 1.4-10.1 6.6-13.1 12.4-2.7 5.2-3.5 22.2-1.9 41.8 1.2 16.1 2.3 20.3 6.3 25.2 4.5 5.4 9.9 7.7 17.7 7.7 3.6-.1 9.3.5 12.6 1.3 15.5 3.5 61.7 2 74.4-2.6 3.1-1.1 7.4-2.2 9.6-2.5 7.4-.9 8.3-1.4 11.4-5.6 4.9-6.7 5.4-10.1 5.5-35.8 0-28-.5-30.5-7.4-37-16.9-16-16.9-16-26.1-16-4.6 0-6.1-.4-6.6-1.6-1.5-4.1 7.2-79.4 9.5-81.6 1.5-1.4 49.5-2.1 64.2-.8 17 1.4 20.4 2.7 29.1 10.7 5.2 4.9 5.9 6 5.9 9.3 0 2.7-.6 4.1-2.1 5.1-1.1.8-4.2 6.5-7 12.8-2.7 6.2-8.4 16.6-12.6 22.9-8.4 12.7-7.2 9.8-27.9 73.5-6.1 18.6-6.7 21.2-5.6 23.9.7 1.9.8 3.7.2 4.8-1.1 2 .9 5.4 4.2 7.1 2.7 1.4 91.6 1.3 97.1-.2 4.6-1.2 5.4-2.9 9.3-19.4 3.2-13.2 3.5-19.4 1.4-24.2-1.3-2.9-1-4.3 4.3-22 3.1-10.3 8.1-27.8 11.1-38.8 8.8-32.3 15.6-56.7 17.1-61.3 1-2.7 1.5-8.3 1.5-15q0-10.8 1.2-12c1-1 1-1.7 0-3.2-.7-1.1-1.7-6.4-2.2-11.7-.8-8-2.8-15.3-10.6-39.3-16-49.5-18.6-57-19.5-57.6-.5-.3.3 2.8 1.7 6.8 6.4 17.5 11.7 41.9 9.5 43.3-.5.3-.8 2-.5 3.8.3 1.7 0 3.9-.6 4.7-.9 1.3-1.2 1.2-2.5-.5-.8-1.1-1.8-2.5-2.3-3-.4-.6-1.1-1.8-1.5-2.8-.3-.9-1.4-1.7-2.3-1.7-1 0-1.4-.5-1-1.5.3-.9-.3-2-1.4-2.7-2.7-1.7-2.5-2.2 1.5-3.7 2.7-.9 3.5-1.8 3.5-3.6 0-1.4-.7-2.6-1.7-2.9-2.8-.8-9.7-2-10.5-1.8-.7.2-4.9-10.5-7.2-18.6-.8-2.9-1.1-5-.6-4.7s1.6 2.7 2.4 5.3l1.4 4.7-.3-6.4c-.4-5.9-1.4-9.7-1.6-5.5 0 1.8-.1 1.8-.9-.1-.5-1.1-.9-3.4-.9-5-.1-3.5-4-7.9-4.2-4.7 0 1.1-.4.8-.9-.8-.4-1.4-1.9-5-3.2-8-1.4-3-2.8-6.9-3.2-8.5-.4-1.7-.9-3.7-1.1-4.5-.4-1.2.6-1.6 4.6-1.8 6.6-.4 9.3-1.5 9.5-3.8.2-5.3.5-6.4 1.4-6.4.6 0 1 1.6 1 3.5s.4 3.5.9 3.5 1.4 1.2 1.9 2.7c1 2.7 1 2.7 1.1.5.1-1.3.8-3.7 1.8-5.2 1.4-2.4 1.4-3.6.5-8.2-2.7-12.5-4-18.9-5.7-28.3-1-5.5-2.3-10.5-2.9-11.2-1.3-1.4-21.5-6-45.1-10.2-39.8-7.1-47.7-7.7-43.4-3.4 1.3 1.3-1.4 4.3-10.5 11.9l-5 4.1 2.6 8.9c1.5 4.9 3 10.7 3.4 12.9s1.8 7.1 3.1 10.9c1.2 3.8 2.3 7.7 2.3 8.7 0 .9.6 2.2 1.4 2.8s1.6 2.2 1.9 3.4c.2 1.2 1.7 5.3 3.1 9.2 1.5 3.8 3.8 11.7 5.2 17.4 3.1 12.9 3.5 13.6 12.8 25 4.2 5.1 7.6 10.1 7.6 11s1.6 4.8 3.5 8.6 4 9.3 4.6 12.2c1.1 4.7 1 5.5-.6 7.3-1 1.2-3 2.6-4.4 3.3-1.3.7-2.6 1.7-2.8 2.2-.3 1.2 7.2 3.5 11.1 3.5 1.3 0 2.9.6 3.5 1.4.7.8 2.1 1.2 3.2.9 1.5-.4 1.8-.2 1.3 1.1-.3.9-.2 1.6.4 1.6 1.2 0 1.8-8.2 1.7-24.3 0-6.4.3-11.7.7-11.7.3 0 2.1 2.4 3.9 5.2 2.8 4.5 3.4 6.5 3.7 12.7l.4 7.3-3.6-.4c-4.4-.5-4.5.4-.5 4.5 1.8 1.7 3.8 4.6 4.6 6.4.7 1.8 1.9 3.3 2.7 3.3 2 0 23.5 11.6 26.4 14.2 3.5 3.3 6.2 9.6 6.2 14.9 0 6-4.6 13.2-11 17.1-5.6 3.4-15.4 5.6-18 4-3.1-1.9-5 1.5-5 9.1 0 5.4-.4 6.9-1.8 7.8-1.8 1.2-1.8 1.3 0 6.1 2.1 5.6 2.4 10.8.6 10.8-2.6-.1-4.9-2.9-6.8-8.5-2.4-7-2.5-8.9-.4-10.9.9-1 1.6-3.6 1.7-6.4l.2-4.7-6.5-.6c-7.8-.8-9.7-1.5-13-4.7-6.4-6.3-8.9-7.5-18.1-8.8-5-.7-9.3-1.4-9.5-1.7-.3-.3.2-2 1.2-3.9 6.1-11.7 4.4-23.3-4.6-31-9-7.8-17.2-10.2-44.8-13.4-14-1.6-15.3-1.9-15.7-3.8-.2-1.2-2.5-16.1-5-33.1-4-27.4-4.4-31.1-3-32.1.8-.6 1.5-2 1.5-3.2 0-1.3.9-2.2 2.8-2.7 6.2-1.5 12.4-4.9 13.3-7.2.7-1.8 1.5-2.3 3.7-2.1 7.1.5 14-8.1 16.3-20.6 1.4-7.8.7-44.7-1-50-1.6-4.8-10.3-14.2-15.1-16.2-1.9-.9-7.3-2.7-12-4-7.6-2.2-10.9-2.6-30.5-3.1-14.3-.3-24.6-.1-29.5.6-4.1.7-10.9 1.7-15 2.2-4.1.6-8.2 1.7-9 2.3-.8.7-4 2.3-7.1 3.5-3.4 1.3-7.2 3.9-9.6 6.4-5.8 6-6.8 11.8-6.8 39.2 0 23.8.7 28 5.5 35.2 3.2 4.6 11.8 10.8 18.3 13.1 2.7.9 5.1 2.2 5.4 2.8.8 2.1-14.2 22.9-24.2 33.3-5.6 5.8-13.2 13.8-16.9 17.8-5.5 5.8-7.5 7.2-10.5 7.6-3.7.4-29-2-49-4.7-6.3-.9-11.6-1.6-11.8-1.6s-.3-.6-.3-1.4-1.6-2.8-3.6-4.6c-2.7-2.3-3.7-4.2-4.2-7.2-.3-2.8-1.1-4.2-2.3-4.5-1.8-.5-2.5-2.4-1.4-3.5.3-.3 2.3.3 4.4 1.4 2.1 1 6.8 2.1 10.4 2.5 6.7.6 6.7.6 6.7-2 0-1.6-1-3.3-2.6-4.6-2.9-2.3-4.9-2.8-3.8-.9.5.8.2.9-1.2.3-1-.4-6.9-2.5-12.9-4.5-10.9-3.7-22.5-9.4-22.5-11 0-.5 1.2-1.5 2.8-2.2 1.8-.9 2.7-2.1 2.7-3.8 0-2.1-.5-2.4-3.7-2.5-5.3-.2-9.8-4.5-4.7-4.5 2.5 0 2.1-1.8-2.4-10.3-4.9-9.3-15.6-16.6-30.7-21.1l-7.5-2.2-1.3-5.9c-1.7-8-4-11-7.7-10.1l-2.8.7 2.2 2.3c1.1 1.2 2.1 3 2.1 3.9 0 1 1.1 5 2.5 8.9 1.4 4.1 2.5 9.3 2.5 12.2-.1 4.9-.1 5-1.5 2.6-.8-1.4-2.4-5.3-3.6-8.6-2.2-6.1-2.2-6.2-6.7-6.8-2.5-.3-5.8-.6-7.3-.6-1.6 0-2.9-.4-2.9-.9s-.9-1.1-2-1.4c-2-.5-2.1-3-.4-11 .3-1.7.1-2.7-.6-2.7-.6 0-.9-.4-.5-.9.7-1.2-7.5-2.5-11.1-1.8-1.5.2-3.9-.2-5.4-1.1-3.3-1.9-6-1-6 1.9 0 2.1-.3 2.1-6 1.6-3.3-.3-7.4-1.4-9.2-2.5s-4.6-2.3-6.3-2.7c-3.7-.9-39.9-.8-51.8.1-12 .9-11.1 2.8 1.4 3.1 5.2.2 11.4.7 13.9 1.2 3.6.7 1.4.9-10.5 1-21.1.2-48.2 3.9-70 9.5-7.1 1.9-16.6 4.2-21 5.2-4.4.9-9.2 2.3-10.7 3-1.4.8-6.8 1.8-11.8 2.4-5.1.6-9.8 1.3-10.3 1.7-.6.4-2.9 1-5.2 1.4-2.2.4-5 1-6.2 1.4-1.5.5-2.3.3-2.3-.4 0-1.3.1-1.3 8-3 3-.7 10.7-2.7 17-4.5 17.2-5 31.8-8.1 49.9-10.7 4.1-.5 8.2-1.4 9.1-1.9 1.7-.9 15.1-3.4 24.8-4.7 5.9-.8 4.8-2.8-1.4-2.6-3.3.1-5.2-.4-5.7-1.3-.5-1-2.7-1.4-6.7-1.4-5.3 0-6 .2-6 2 0 1.1.5 2 1.1 2 .5 0 .7.4.4 1-1.1 1.7-7.4 1.1-9.4-.9-2.5-2.5-7.1-3.6-7.1-1.7 0 .7-1.2 1.7-2.7 2.1-1.5.3-3.2 1.2-3.7 1.9-.6.8-2.8 1.6-4.8 1.9-2.9.4-4.5 0-7.2-1.8-1.9-1.3-6-2.8-9.1-3.4-3-.6-6.4-1.5-7.5-2.1-1.3-.7-25.4-1-72.7-1-39 0-72.3-.3-74.2-.6-2.3-.5-3.2-.3-3 .4.7 2 14.6 15.7 17 16.8 1.6.7 8.1.8 19.4.3 9.4-.5 30.2-1.3 46.3-1.8 16.1-.6 29.6-1.2 30-1.4.4-.3 5-.7 10.2-1 5.6-.4 8.5-.3 7 .2-4.6 1.6-12.5 3.1-18 3.6-3 .2-7.3.8-9.5 1.4-2.2.5-23 1.2-46.2 1.6l-42.1.6-1.7-2.9c-1-1.6-3.2-3.7-5.1-4.7-1.8-1-4.6-3.6-6.1-5.9-5-7.5-7.1-8.8-13-8.4-2.9.3-5.6.8-6 1.2s-1.1 10.5-1.6 22.4c-.7 19.8-.6 21.8.9 22.9 1.6 1.2 1.6 1.3-.2 2-1 .4-4 2.9-6.5 5.5s-5.1 4.8-5.8 4.8c-1.6 0-1.4-2.5.4-4 1.7-1.4 2-4 .5-4-.6 0-3.8 1.1-7.2 2.5s-7.2 2.5-8.4 2.5c-1.3 0-4 1.1-6 2.5s-4.6 2.5-5.7 2.5c-1.6 0-.9-1.1 3.5-5.3 6.4-5.9 8.1-10.3 10-24.7 1.9-15-.5-50.8-3.8-57.2-2.8-5.3-10.7-12-16.5-13.9-1.9-.6-6.1-2.2-9.4-3.4-3.3-1.3-8.5-2.8-11.5-3.4-5.7-1.1-39.9-4.2-43.5-3.9-1.1 0-7.5.4-14.2.8m36.9 8.2c3 .9 3.6 1.4 2.7 2.5-.7.7-2.9 1.6-5 1.9-2.1.4-4.4 1.3-5 2-2.3 2.8-7.9 1.3-7.7-2.1 0-1.1-.1-2.6-.3-3.4-.8-3 6.6-3.3 15.3-.9m713.6 1.9c6.8 2.2 2.3 5-6.5 3.9-6.4-.8-8.3-1.5-8.3-3.1 0-2.7 7.8-3.1 14.8-.8m83.1 25.4v2l-.9-2c-.5-1.1-.9-2.7-.9-3.5-.1-1.3 0-1.3.9 0 .5.8.9 2.4.9 3.5m22.7 9.7c.7 3.4 1.1 6.4.9 6.6-.4.4-4.5-12.8-4.5-14.4 0-.4.5-.3 1.2.4.6.6 1.7 3.9 2.4 7.4m4.3 6.3v2l-.8-2c-.5-1.1-1.1-4-1.5-6.5l-.6-4.5 1.5 4.5c.8 2.5 1.4 5.4 1.4 6.5m-22.4-2c.8 4.8-.1 7.7-1.6 5.4-1.2-1.9-1.1-11.2 0-10.4.6.3 1.3 2.5 1.6 5m49-.3c.9 2.9 2.3 6.5 3.1 8 1.6 2.9 1.8 5.8.5 5.8-1.1 0-1.8-1.8-4.2-10.9-2.1-8.2-2.1-8.1-1.5-8.1.3 0 1.2 2.4 2.1 5.2m-477.8 9.4c-.3.3-1.2.4-1.9.1-.8-.3-.5-.6.6-.6 1.1-.1 1.7.2 1.3.5m8 1c-.3.3-1.2.4-1.9.1-.8-.3-.5-.6.6-.6 1.1-.1 1.7.2 1.3.5m10.3 1.9 4.5 1.5-4-.6c-2.2-.3-4.7-1-5.5-1.5-2.3-1.3 0-1 5 .6m33 5.9c0 3 .3 6.1.6 7 1 2.6-1.6 1.8-10.1-3-4.4-2.5-7-4.2-5.8-3.9 1.5.4 3.5-.3 6.4-2.5 2.3-1.6 5.3-3 6.6-3 2.1 0 2.3.4 2.3 5.4m5.4-.3c-.3.5-1.2.9-2 .9-1.7 0-1.9-3.1-.2-4.8 1-1 1.4-.8 2 .9.5 1.1.6 2.5.2 3m-51.1-1.1c21.3 3.2 27.3 4.3 28.7 5.3.8.6 3.3 2.8 5.6 4.7 4.8 4 19 11.4 20.4 10.5 1.9-1.2 1-4.1-2-6.3-1.6-1.2-3.4-2.2-4-2.2s-.8-.5-.4-1.1c.4-.8.9-.8 1.7 0 .6.6 3.9 1.1 7.4 1.1 7.2 0 9.1 1.7 5.3 4.8-1.8 1.5-2 2.1-1.1 4.5.6 1.6 1.1 3.9 1.1 5.2s.7 3 1.5 3.9c1 .9 1.5 3.4 1.5 6.9 0 5.4-.1 5.6-3.1 6.2-1.7.4-6 .4-9.5 0l-6.5-.7 2.6-2c3.1-2.4 3.1-3.9-.3-10.8-2.4-4.9-3.6-6-11.7-10.8-11.7-6.9-14.5-8.1-21.3-9.3-3.2-.6-10.4-2.6-16.2-4.4-5.8-1.9-11.8-3.7-13.4-4-2.3-.5-2.7-.8-1.5-1.6 1.9-1.2 6.4-1.1 15.2.1m449.3 4.8c-1.2 1.1-3.6-.9-3.6-3l.1-2.3 2 2.4c1.1 1.3 1.7 2.6 1.5 2.9M938 211c0 .5-.2 1-.4 1-.3 0-.8-.5-1.1-1-.3-.6-.1-1 .4-1 .6 0 1.1.4 1.1 1m31 7.5c0 2.1-.5 2.5-3 2.5-3.5 0-9.4-2.2-10.4-3.9-.5-.8 1.5-1.1 6.3-1.1 6.9 0 7.1.1 7.1 2.5m228.7-.9c-.3.3-1.2.4-1.9.1-.8-.3-.5-.6.6-.6 1.1-.1 1.7.2 1.3.5m8.8.4c.3.5-.1 1-.9 1s-1.8-.5-2.1-1c-.3-.6.1-1 .9-1s1.8.4 2.1 1m9.8-.3c-.7.2-2.1.2-3 0-1-.3-.4-.5 1.2-.5 1.7 0 2.4.2 1.8.5m163.6 5.3c0 .9-.6.4-1.4-1s-1.4-3.2-1.4-4c0-.9.6-.4 1.4 1s1.4 3.2 1.4 4m-153.9-4c0 .5-.4 1-1 1-.5 0-1-.5-1-1 0-.6.5-1 1-1 .6 0 1 .4 1 1m7.8 1.4c.3 1.6 0 1.8-2.4 1.2-3.5-.9-3.8-1.2-2.9-2.6 1.1-1.7 4.9-.7 5.3 1.4m107.2.7c.7 1.1.9 2.4.5 2.7-.9.9-4-1.3-4.3-3.2-.5-2.3 2.5-2 3.8.5m11.5 2.7c-.8.8-4.3-.9-4.9-2.4-.5-1.2-.1-1.2 2.4.2 1.6 1 2.8 2 2.5 2.2m19.8-.5c1.1 3.5.6 4.1-2.8 3.3-2.8-.7-4-2.7-3.1-5.2 1-2.5 4.8-1.3 5.9 1.9m-50.3 3.4c0 3.7-2.4 2.2-2.8-1.7-.3-3-.2-3.2 1.2-2.1.9.8 1.6 2.5 1.6 3.8m-328.9 2.6c9.4 6.3 12.8 11.3 4.9 7.2-1.7-.9-3-1.2-3-.9 0 1.6 7.2 7.4 15.3 12.4 7.3 4.5 10.3 7 8.3 7-1.9 0-20.9-10.9-24.1-13.9-5.3-4.9-9.5-10-9.5-11.4 0-.7.5-.4 1.1.5.5 1 1.7 1.8 2.5 1.8 1.1 0 .8-.8-1.1-2.7-1.4-1.5-2.5-3.7-2.5-4.7 0-1.7.2-1.8 1.3-.5.6.8 3.7 3.1 6.8 5.2m-23.8-1.6c.3 1.6.3 3 .1 3.2-.6.6-3.3-3.2-3.4-4.7 0-2.4 2.8-1.1 3.3 1.5m42 2.6c1.8 1.8 3.6 8.7 2.3 8.7-3.1 0-13.6-9.9-13.6-12.7 0-1.5 9 1.7 11.3 4m333.2-.2c1.1 1.7-.1 2.1-1.5.4-.8-.9-.8-1.5-.2-1.5s1.4.5 1.7 1.1m3.1 7.3c1 .8 1.7 1.6 1.4 1.9-.8.8-5-1.1-5-2.3 0-1.4 1.3-1.3 3.6.4m-981.4 3.1c4.4 3.2 5.8 7.3 5.8 17.2 0 7.3-.4 9.5-2.3 12.8-2.9 5.1-5.7 6.5-13.3 6.5-7.1 0-10.3-1.9-13.4-8.1-2.7-5.2-2.7-16.7 0-22.6 2.7-6.2 7-8.5 14.5-8.1 4 .3 7 1 8.7 2.3m991.1.8c.3.8-.1 1.4-.9 1.4s-1.4-.6-1.4-1.4c0-.7.4-1.3.9-1.3s1.1.6 1.4 1.3m-910.9 3.6c.9 1.3-.3 3.9-2 4.5-2 .8-2.9-2-1.4-3.9 1.4-1.7 2.6-1.9 3.4-.6M900 246c4.4 4.4-.4 6.8-10.3 5.1-3.5-.6-7.5-1.1-9-1.1-2.9 0-8.2-1.8-7.5-2.6.9-.8 15-3.1 20.1-3.3 3.5-.1 5.2.4 6.7 1.9m329.8 4.2c1.7 7.7 6.2 35.9 6.1 38.3 0 1.7-.2 1.7-1-.5-.6-1.4-2.6-7.9-4.5-14.5-1.9-6.5-4.6-14.4-6-17.5l-2.5-5.7 2.7-3.1c1.5-1.7 3-2.9 3.4-2.7s1.2 2.8 1.8 5.7m-777.3-1.1c.8 2.4-1 6.5-3.2 7.3-1.1.5-1.3-.2-.8-3.2.4-2 .8-4.3 1-5 .7-1.9 2.3-1.4 3 .9m883.2 1.1c-.3.8-.6.5-.6-.6-.1-1.1.2-1.7.5-1.3.3.3.4 1.2.1 1.9m-385 0 2.8 1.2-3.5.4c-5.4.6-16.6-.8-14.9-1.9 2.1-1.3 12.3-1.1 15.6.3m232.3.5c0 1.5-2 3.8-17.7 20.2-17.8 18.5-26.9 28.6-29.6 32.5-1.6 2.3-5.7 3.7-5.7 1.9 0-.3 2.8-3.6 6.3-7.3 3.4-3.7 14.5-16 24.6-27.4 11.1-12.4 19.2-20.6 20.3-20.6 1 0 1.8.3 1.8.7m155 4.8c0 .5-.5.3-1-.5s-1-2-1-2.5c0-.6.5-.3 1 .5s1 1.9 1 2.5m-428.1-.9c.2.2.1 1-.2 1.9-.5 1.1-2.1 1.5-6.2 1.5-3 0-5.5.4-5.5 1 0 .5 2.5 1 5.5 1 4.2 0 5.5.3 5.5 1.5 0 1.1-1.3 1.5-5.4 1.5-7.7 0-8.1 1.8-.5 2.2 3.5.2 6.4.8 6.6 1.4.6 1.8-1.7 2.2-9.2 1.5l-7-.6-.3-6c-.4-7.8.8-8.8 9.8-7.9 3.6.4 6.7.8 6.9 1m444.9-.7c1.4.8 6.5 15.1 5.7 15.9-1.5 1.5-9.5-11.6-9.5-15.6 0-1.4 1.9-1.6 3.8-.3M874.5 256c0 1.1-1.6 1.6-6.5 2-6.1.5-6.5.7-6.8 3.1-.4 3 1.5 3.9 8.6 3.9 3.1 0 4.2.4 4.2 1.5 0 1.2-1.4 1.5-6.5 1.5-7.5 0-10.5-2-10.5-6.8 0-5 3.8-7.1 12.5-6.9 3.7.2 5 .6 5 1.7m5.7 3.2.3 5.3 5.3.3c3.8.2 5.2.7 5.2 1.8 0 1.2-1.4 1.4-7.2 1.2l-7.3-.3-.3-5.4c-.4-6.2.2-8.1 2.2-8.1 1.1 0 1.6 1.4 1.8 5.2M951 256c2 .5 2.7 1.7 3.9 6.3.8 3.1 1.2 5.9.9 6.3-.6.6-19.4-3.6-23-5.1-1.1-.4-1.8-.3-1.8.3s1.9 1.7 4.3 2.5c3.9 1.5 4 1.5 1.2 1.6-5.9.1-7.3-.8-7.3-4.6v-3.5l5.2.6c5.1.7 5.1.7 7-2.8 2-3.8 1.7-3.7 9.6-1.6m-98 4.3c2.2 3 4 5.9 4 6.5 0 1.7-2.5 1.5-4-.3-.7-.8-2.8-1.5-4.7-1.5-2.3 0-3.3-.4-3-1.3.2-.6.9-1.2 1.5-1.2 1.3 0 1.6-.9.9-2.8-.2-.7-2.2.8-4.6 3.5-4.1 4.6-7.1 6.1-7.1 3.7 0-2.1 9.1-11.9 11-11.9 1.2 0 3.6 2.2 6 5.3m339-2.8c0 1.5-.6 3.8-1.4 5.3-1.4 2.6-8.6 10.2-8.6 9 0-1.8 3.4-9.8 5.6-13.1 2.8-4.3 4.4-4.7 4.4-1.2m25.9-.6c.6 1 2.8 7.6 4.9 14.7 2.2 7.1 6.1 19.8 8.7 28.3 2.5 8.4 4.4 15.5 4.1 15.8-.6.6-23.1-1.6-25.2-2.4-1-.4-1.2-3.3-.8-13.6 1.3-30.7 2.1-39.6 3.8-42.2 2-3 3.2-3.2 4.5-.6m-383.1.3c1.9 1.9 1.4 4.9-.8 5.5s-2.6 1.8-1 2.8c.6.3 1 1 1 1.6 0 1.6-3.6 1-6.3-1.1-1.4-1.1-3-2-3.6-2s-1.1-.5-1.1-1c0-.6 1.3-1 2.9-1 3.6 0 6.1-.9 6.1-2.2 0-.5-2.4-.8-5.2-.6l-5.3.3-.5 4c-.7 4.6-1.7 6.8-3.1 6-1-.7-1.2-5.8-.3-10.4l.7-3.1h7.6c4.7 0 8.2.5 8.9 1.2M477 262.4c.1 1.7.7 6.9 1.4 11.6s1.1 9.1.8 9.7c-.8 2.3-2.4.1-1.7-2.4l.6-2.4-10.3.7c-6.7.4-10.7 1.1-11.4 2-.6.7-2.2 1.8-3.6 2.3-2.8 1.1-3 1.9-4.8 19.5-.8 8-1.4 10.3-3.4 12.7-1.3 1.5-2.7 2.5-3 2.2-.3-.4-.6-8.4-.6-17.8v-17.1l4.5-7.1c3.6-5.6 5.4-7.4 8.6-8.7 2.1-.9 4.5-1.6 5.3-1.6.7 0 4.4-2 8.2-4.4 7.6-4.9 9.4-4.8 9.4.8m337.8-4.2c1.7 1.7 1.5 7.4-.3 9.2-2.1 2.1-11.5 3.1-15.9 1.6-3.2-1-3.6-1.5-3.6-4.5 0-5.2 3.6-7.5 11.9-7.5 3.9 0 7.2.5 7.9 1.2m-227.4.6c.3.5-.8 2.2-2.4 3.7-2.1 2-3 3.8-3 6.1 0 1.7-.6 3.7-1.4 4.3-1.2 1-1.2 1.6.2 4.2 1.6 2.9 1.6 3.1-.3 4.5-2.7 2-4.9 1.4-5.3-1.5-.2-1.3-1.5-4.2-2.8-6.3-2.7-4.3-2.6-4.5 1.8-2.2l3.1 1.6-.6-4.6c-.7-5.1.4-6.9 5.8-9.2 3.6-1.6 4.2-1.7 4.9-.6m37.9 7.4c.7 2.4.1 3.8-1.4 3.8-.6 0-.7-.5-.3-1.1.9-1.5-1.4-2.9-4.8-2.9-1.6 0-2.8-.5-2.8-1 0-.6 2-1 4.4-1 3.6 0 4.5.4 4.9 2.2m-95 1.8c1.4 1.1 3 2 3.6 2s1.6.9 2.3 2c1.7 2.7 2.8 2.5 2.8-.5 0-2.7 2.6-3.5 4.8-1.3.9.9 1.2.6 1.2-1.6 0-3.8 1.8-2.3 2.5 2.2.3 2 1.3 5.2 2.1 7 2.4 5.6 2.2 5.8-8 7.2-5.2.7-9.9.9-10.4.6-.9-.6-4.5-6.5-8.9-14.8-.8-1.5-1.2-3.2-.8-3.8 1-1.7 6.1-1.1 8.8 1m77.6.4c.9 1 .8 1.6-.3 2.6-2 1.6-3.5.5-2.9-2 .6-2.3 1.6-2.5 3.2-.6m598.5 8.8c-.2 5.1-.5 15.3-.5 22.5 0 7.3-.4 13.5-.8 13.8-2.5 1.5-5.1-9.7-3.1-13.4.6-1.2 1.3-6.3 1.5-11.4.8-15.4 1-18.2 1.8-19.5.5-.6 1-1.2 1.2-1.2s.2 4.2-.1 9.2M563 272.4c0 2.3 4.2 6.8 7.9 8.4 2.5 1.1 3.1 1.7 1.9 1.9-1.9.5-6.1-1.6-10-4.9-2.1-1.8-2.6-2.9-2.1-5 .5-2.7 2.3-3 2.3-.4m343-.4c0 .8-16.9.3-17.9-.6-.2-.2 3.7-.4 8.7-.4 5.2 0 9.2.4 9.2 1m83.8 4.7c2.7 2.1 5.6 4.2 6.5 4.8.8.5 1.8 2.2 2.1 3.7.6 2.6.5 2.7-1.9 1.6-1.3-.6-2.2-1.5-1.9-2 .3-.4-.1-1-.8-1.2-4.8-1.3-12.9-4.2-16.2-5.9l-4-1.9 2.5-1.9c3.4-2.7 7.7-1.8 13.7 2.8m361.7-4.1c1.5.6 6.4 9.4 7.9 14 .7 2.1.5 2.1-4.6-.5-5.3-2.8-9.7-8.4-9.8-12.4 0-1.8 3.2-2.3 6.5-1.1M849 274.5c0 1.9-4.3 8.6-5.3 8.2-1.7-.5-2.1-5.5-.6-7.3 1.1-1.3 5.9-2 5.9-.9m162.2 4c2.4 1.5 3.6 2.4 2.8 2.1-.8-.2-3.8-1.2-6.7-2.1-2.8-.9-5.4-2.2-5.6-3-.8-1.9 4-.4 9.5 3m180.8 14.3c-.3 9.9-.8 18.3-1.1 18.6-.6.6-26.1-1.3-26.8-1.9-.1-.2.5-2.8 1.5-5.7 1.4-4.4 3.7-7.3 13.7-17.5 6.6-6.7 12.3-12.1 12.6-11.9s.4 8.5.1 18.4m-337.5-13.1c-.3 2.1-.6 5.7-.6 8 .1 3.4-.2 4.3-1.5 4.3s-1.5-.7-1.1-3.5c.3-1.9.1-3.7-.4-4-2.3-1.5-.1-8.5 2.7-8.5 1.3 0 1.5.7.9 3.7m62.2-.3c1.3 1.2-1.7 2.9-7.7 4.2-6.5 1.5-8 1.3-8-1.3 0-3.8 2.6-5 9.1-4.2 3.3.4 6.3 1 6.6 1.3M1064 278c0 .5-.2 1-.4 1-.3 0-.8-.5-1.1-1-.3-.6-.1-1 .4-1 .6 0 1.1.4 1.1 1m-200.5 1c.4.6 1 .8 1.5.5s4.6-.6 9.2-.7l8.3-.1.3 2.7c.3 2.8.3 2.8-4.7 2.5-5.4-.4-6.1.1-6.1 4.8 0 1.9-.4 2.4-1.6 1.9-.9-.3-2-.6-2.5-.6-1.4 0-1.1-2.7.6-4.4.8-.8 1.5-1.6 1.5-1.9 0-.2-2.5-.3-5.5-.1-6.1.4-7.6-.8-4.9-3.7 1.9-2.1 3-2.4 3.9-.9m481.3 4.7c2.5 5.1 1.9 7.7-1.6 6.8-1.5-.4-2.7-.7-2.7-.8s-.9-1.2-1.9-2.4c-1.8-2.1-1.8-2.4-.2-4.8 2.3-3.5 4.3-3.1 6.4 1.2m-975.4-2.1c1.3.5 1.6 2.4 1.6 10 0 11.1-1.5 15.6-6 17.9-4.7 2.4-11-.3-11-4.9 0-4.7-1.5-5.2-6.7-2.4-2.6 1.5-4.9 3.1-5.1 3.6-.4 1.3 5.6 5.4 18.6 12.6 9 5.1 10.2 6 10.2 8.4 0 1.5-.4 3.2-.8 3.8-.6.9-29.7 16.4-30.8 16.4-.3 0-.4-1.7-.2-3.8.3-3.1.9-4 3.9-5.6 3.6-2 3.7-2.1 4.3-9.6.8-9.1.5-10-3.8-12.4-4-2.1-4.6-3.9-3.6-9.7.7-3.5 1.9-5.3 7.1-10.1 3.5-3.2 7.1-5.7 7.9-5.6 1.1.2 1.6 1.9 1.8 5.5.3 5.8 2 7.8 5.6 6.9 2.6-.6 4.6-4.9 4.6-9.5 0-4.7-.8-5-14-5.3-11.1-.3-12.5-.5-12.8-2.1-.9-4.4 0-4.7 14.2-4.7 7.4 0 14.1.3 15 .6m401.6.4c0 .5-.7 1-1.5 1s-1.5-.5-1.5-1c0-.6.7-1 1.5-1s1.5.4 1.5 1m219.5 9.2c3.9 1 11.1 2.1 16 2.3 5.3.2 10.2 1 12 1.9 3.5 1.7 6.9 2.3 37.5 7 31.2 4.9 35.3 5.4 53.5 6.6 8.8.6 22.8 1.7 31 2.5 27.1 2.7 36.8 3.5 41.4 3.5 5.5 0 8.2 1.3 6.4 3.1-1.6 1.6-18 1.7-21.9.1-1.6-.6-11.2-1.6-21.3-2.2-10.2-.5-22.3-1.4-27-1.9-4.7-.6-14.4-1.5-21.6-2.1-14.7-1.2-28.4-2.6-39.5-4-4.1-.6-9.7-1.2-12.5-1.5-6-.5-21.1-2.5-24.2-3.1-1.4-.3-2.5-1.4-2.9-2.9-.9-3.7-3.5-4.7-8.7-3.5-4.2.9-10.6 0-13.2-1.9-.5-.5-6.2-2.3-12.5-4.1-12.7-3.6-17.4-5.6-16.5-7 .3-.5 4.2.4 8.8 2.1 4.5 1.7 11.4 4 15.2 5.1m167.3-1.1c-1.8 3.1-4.6 8.3-6.2 11.7-2.9 6-3.1 6.2-6.8 6.2-2.2 0-3.8-.5-3.8-1.1 0-2.5 19.2-24.9 19.8-23.1.1.5-1.2 3.3-3 6.3m-548.9-1.6c4.2 2.5 4.6 2.5 14.8 1.5 7.7-.7 11.1-.7 12.6.2 4.4 2.3 10 2.7 17.1 1.1 4.2-.9 8.9-1.3 11.9-1 4.9.6 12.2 4.2 15.8 7.8 1.7 1.7 2.6 1.8 9.1.9 4-.5 10-1 13.4-1 4.9 0 6.5-.4 8-2.1 2.3-2.6 7.4-4.9 10.9-4.9 1.5 0 5-1.1 7.9-2.5 4.3-2 5.9-2.3 8-1.6 1.4.6 7.4 1.3 13.2 1.7 8.4.6 11.6 1.2 15.1 3.1 3.4 1.8 6 2.3 11.4 2.3 3.9 0 6.9.4 6.9 1 0 1-2.5 1.4-6.9 1-1.4-.1-2.1.2-1.7.9.4.6 1.4 1.1 2.2 1.1.9 0 1.4.7 1.2 1.7-.3 1.3-1.1 1.7-3.3 1.5-3.4-.4-19.5-.3-24 .1-2.7.2-3-.1-2.7-2.3.2-2-.4-2.8-2.8-3.7-1.6-.6-3-1.7-3-2.3 0-1.6 5.8-.3 8.6 1.9 1.4 1.1 3.5 1.5 7.2 1.3 5.6-.4 6.8-1.6 2.5-2.6-1.6-.5-2.9-.3-3.4.5-.4.7-1.4.9-2.5.4-1.8-.7-1.8-.8.1-1.5 1.7-.6 1.4-.9-1.5-1.3-1.9-.3-7.1-.8-11.5-1.1-7.9-.5-9-.3-21.5 3.9l-4.5 1.5 4-.4c2.2-.3 5.2-.8 6.8-1.1 2.1-.6 2.7-.4 2.7.9 0 1 .5 1.4 1 1.1.6-.4 1.8-.4 2.6-.1 1.3.5 1.3.9 0 3.3-1.3 2.6-2.1 2.8-11.2 4-10.1 1.3-11.6 1.1-9.6-.9.7-.7 1.2-1.4 1.2-1.7 0-1-29.6.7-35.5 1.9-5.2 1.1-5.5 1.3-5.5 4.1 0 4.5-3.3 3.9-6.2-1.2-3.5-6.3-5.5-6.9-23-6.9-9.2 0-16.9-.5-19.4-1.3-3.7-1.1-1.9-1.2 16-1.4 20.8-.3 25 .3 28.1 3.7 1.3 1.4 2.5 1.8 4.4 1.3 3.5-.8 3.6-.9 1.5-3.1-3.8-3.9-5.7-4.2-22.6-3.8-12.3.3-17.3.1-20.3-.9-4.4-1.6-10.8-1-12.9 1.1-1.5 1.4-6.6.1-12.7-3.5-2.8-1.6-5.1-1.9-14.1-1.8-6 .1-10.8.4-10.8.7 0 .5 3.1 2.2 9 4.7 2.5 1.1 3.1 1.1 2.3.2-2-2-1.5-2.9 1.6-2.9s8.5 2.2 14.4 5.9c3.1 1.9 4.6 2.2 8 1.7 3.5-.5 3.9-.4 2.3.6-1.1.6-4.1 1.2-6.8 1.2-2.6.1-4.8.4-4.8.8 0 1.5 2.6 2.1 9.5 2.3 3.9.2 8.1.7 9.2 1.3 2.5 1.4 5.6 5.9 4.8 7.1-.3.5-2.9 1.5-5.7 2.1-9 2.1-8.4 2.7 3.4 3.4 28.5 1.7 38.1 2.7 49.7 5.1 13.2 2.8 16.8 2.6 25.9-1.2 1.9-.8 5.2-1.8 7.5-2.2 39.7-8.1 44.4-8.5 56.4-4.5l5.3 1.7 14.2-6.1c7.9-3.3 18.8-7.4 24.3-9.2 10.7-3.4 13.1-4.6 7.5-3.7-5.3.8-33-2.7-33-4.1 0-.4 13.4-.7 29.8-.7 33.8.1 32.3-.2 42 8.9 6.4 6 10.8 12.2 11.7 16.2l.6 2.9-1.7-3-1.7-3-.9 3c-.9 3-.3 30.3.7 31.3.3.3.7.3 1 0 1.1-1 2.5-12.4 2.6-20.3.1-8.9 1.2-7.3 2.3 3.6.9 8-2.4 31.8-5.2 38.1-2.6 5.9-7.4 10.8-10.5 10.8-3.7 0-4-1.2-1.7-6.3 1.5-3.4 1.9-5.7 1.4-8.6-.6-3.8-.4-4.2 2.5-5.8 3.1-1.8 4.5-3.8 3.6-5.3-.3-.5-2.5-1.8-5-3-4.9-2.4-5-2.6-5.9-14.9-.4-5.9-.8-6.8-4.1-9.9-3.9-3.7-3.7-4.9 1-5.4 2.8-.3 3-.6 3.3-4.8.4-4.5-1.3-14.6-2.8-16.9-.5-1-3.6-1.1-12.3-.5l-11.6.7-.3 7.6c-.3 6.7-.5 7.6-2.3 7.9-5.4.8-6.5 1.3-6.5 3.2 0 1.8.9 2 13.3 2.2l13.2.3.3 4.2.3 4.2-9.8.3-9.8.3-.6 6c-.5 4.2-1.2 6.3-2.5 7-1 .5-2.8 2-4 3.3s-3.5 2.7-5.1 3.1c-2.1.6-2.7 1.3-2.5 2.8s-2-.2-7.5-5.6c-15-14.7-30.2-24.7-42.6-28.1-7.8-2.1-22.8-.8-39.2 3.5-7.7 2.1-17.8 4.6-22.5 5.6-13.1 3-29.9 6.9-31.8 7.5-3.4 1.1 3.4-3.6 7.6-5.2 4.9-1.9 5.3-3 1.5-3.7-1.6-.3-5.4-1.3-8.6-2.2-9.4-2.6-42.6-5.2-55.8-4.3-6.2.4-11.4.6-11.7.4-.7-.8 7.1-4.3 14.5-6.6 12-3.6 12.5-7 1-7-6.3 0-7.4-.3-9.9-2.7-2.8-2.6-2.8-2.7-6.3-1-5.4 2.6-9.4 2-6.5-.9 1.1-1.1-6.7-7.6-11.3-9.3-3.3-1.3-3.6-4.5-.5-6.2 1.2-.6 4.1-.9 6.7-.6 2.5.3 6.4.2 8.6-.3 6.7-1.3 8.8-1.1 13.4 1.5m253.6-.5c-.3.5-1.2 1-1.8 1-.7 0-.6-.4.3-1 1.9-1.2 2.3-1.2 1.5 0m103.5.7c3.2 2.2 10.7 10.4 14.3 15.6 3.7 5.4 6.7 15.7 6.7 22.6-.1 6.1-1.3 5.4-2.4-1.4-1.9-10.8-8.9-24.4-17-32.8-5.5-5.8-6-7-1.6-4m-119 1.8c0 .9-.6 1.2-1.5.9-.8-.4-1.5-1-1.5-1.5s.7-.9 1.5-.9 1.5.7 1.5 1.5m-385.4 10.9c-1.3 1.5-2.7 2.3-3 1.8-1-1.7.6-10.2 1.9-10.2.7 0 1.7-.8 2.1-1.8.6-1.2.9-.4 1.2 2.9.2 3.9-.1 5.2-2.2 7.3M833.5 291c.4.6-1.9.9-6.2.8-6.4-.1-6.6-.1-2.3-.8 6.9-1.1 7.8-1.1 8.5 0m114.4 2.9c2 1.3.6 6.1-1.9 6.1-2.3 0-3.7-2-2-3 .8-.5.7-.9-.5-1.4-.9-.3-1.3-1-1-1.6.8-1.2 3.5-1.3 5.4-.1m455.8 1.3c-.3.8-.6.5-.6-.6-.1-1.1.2-1.7.5-1.3.3.3.4 1.2.1 1.9m-408.9 4.3c1.1 1.1-1.5 2.3-6.5 2.9-5.2.7-8.2-.7-4.6-2.1 1-.4 2.4-1.2 3.1-1.9 1.1-1.2 6.5-.5 8 1.1m-194.5.2c-.7.2-1.9.2-2.5 0-.7-.3-.2-.5 1.2-.5s1.9.2 1.3.5M456 302.5c0 2.1-2 6.8-2.6 6.2-1-.9.7-8.8 1.7-8.1.5.3.9 1.1.9 1.9m306.3 1.9c.7 1.6-.8 3-4.1 4-2.7.9-4.1-1.6-2.2-3.9 1.6-1.9 5.6-1.9 6.3-.1m82.7 7.5c0 3.9-.4 7.2-.8 7.5-.5.3-2.7 0-5-.6-4-1-4.1-1.1-4.7-6.3-.4-3-.4-5.8 0-6.4.3-.6 2.8-1.1 5.6-1.1h4.9zm-129-5c0 1.5-1.6 2.2-3.5 1.5-1.3-.5-1.4-.8-.3-1.5 1.8-1.2 3.8-1.1 3.8 0m284.2 4.9c4.1 4 4.6 4.2 5.3 1.9.7-2.2.8-2.2 1.2-.1.2 1.2 1.8 2.6 3.9 3.4 1.9.8 4 2.1 4.7 2.9 1 1.2.9 1.4-.6.8-1-.4-4.5-.7-7.7-.7-5.7 0-5.9-.1-6.2-2.8-.3-2.6-.6-2.7-6.5-3-6.1-.3-8.3-1.8-6.7-4.4 1-1.5 10.6 0 12.6 2m10.8-.4c0 1.1-1.9 1.5-2.5.6-.3-.5.1-1 .9-1 .9 0 1.6.2 1.6.4M507 316c0 .5-1.7 1.4-3.7 1.9-10.1 2.6-13.2 3.3-14.9 2.9-1.1-.2 1.5-1.2 5.6-2.2s8.2-2.2 9-2.7c2-1.1 4-1.1 4 .1m555.2.5c0 .8.1 2 .2 2.7.1 1.3-5 2.2-5.8 1-.3-.5-.2-1.8.1-3 .6-2.6 5.2-3.1 5.5-.7m30.5 1c.7 2-.2 2.9-2.1 2.2-.9-.4-1.3-1.3-1-2.2.8-1.9 2.3-1.9 3.1 0m134.9 2.3c.8.5.5 1.3-.7 2.6-1.1 1.1-1.9 1.5-1.9.9s-.7-1.4-1.6-1.7c-.8-.3-1.2-.2-.9.4.9 1.4-.6 6.1-1.9 5.7-.6-.2-1-1.4-.8-2.5.4-3-3-2.9-5.2 0-1.6 2.3-1.6 2.3-1.1-.9.5-2.6.3-3.3-1.7-3.9-2-.8-1.9-.9 1.7-1.5 4.2-.7 12.2-.2 14.1.9m-746.2 3.1c-5.2 1.9-10.4 5.9-10.4 8 0 .7-.4.9-1 .6-1.8-1.1-1.1-5 1.3-6.5 2.1-1.4 10.4-3.7 13.7-3.8.8 0-.8.8-3.6 1.7m121.5 1.1c6.1.6 11.4 1.6 12.8 2.5 2.6 1.8 3.1 5.6.8 7.5-1.2 1-1.5.9-1.5-.7 0-3.5-3.2-5-13-6.3-5.2-.7-10.1-1.4-11-1.7-.8-.3.6.8 3.3 2.3 2.6 1.5 4.7 3.1 4.7 3.6 0 1.4-8.9.9-12-.7-3.3-1.7-5.4-5-4.6-7.1.4-1.1 1.7-1.4 5.4-.9 2.6.3 9.4 1 15.1 1.5m-85.2.5c.2.6-1.4 1.2-3.4 1.3-2.1.2-4.2.7-4.6 1.1s-.9 3.5-1 6.9-.6 5.7-1.1 5.2c-1.3-1.3-.2-12.6 1.4-14.5 1.5-1.8 8.1-1.8 8.7 0m444.8-.5c-.3.5-1.2 1-2 1s-1.7-.5-2-1c-.4-.6.5-1 2-1s2.4.4 2 1m130.5 1c0 1.3-.7 2-2 2s-2-.7-2-2 .7-2 2-2 2 .7 2 2m-517.8.6c3.1 1.6 3.1 1.7 1.2 3.1-1 .8-2.8 1.2-3.9.9s-2.6-.6-3.2-.6c-.7 0-1.3-.8-1.3-1.8 0-3.6 2.3-4.1 7.2-1.6m612.8.3c0 .6-.4 1.3-1 1.6-.5.3-1-.1-1-.9 0-.9.5-1.6 1-1.6.6 0 1 .4 1 .9m-649 1c0 .6-.4 1.3-1 1.6-.5.3-1-.1-1-.9 0-.9.5-1.6 1-1.6.6 0 1 .4 1 .9m17 3.3c0 1.1-1.8 1-2.5-.2-.3-.5-1.2-.7-2-.3-.8.3-1.5 0-1.5-.6s.7-1.1 1.5-1.1 1.5-.6 1.5-1.3c.1-1.3 3 2.1 3 3.5m506 1.3c0 4.7-.9 5.9-3.4 4.9-2-.8-2.3-9-.3-9.7 2.6-.9 3.7.6 3.7 4.8m137.7-4.9c-.3.3-1.2.4-1.9.1-.8-.3-.5-.6.6-.6 1.1-.1 1.7.2 1.3.5M548 328.9c0 1.1-.4 2.3-1 2.6-.6.4-1-.5-1-1.9s.5-2.6 1-2.6c.6 0 1 .9 1 1.9m-28 2.2c0 .5-.4.9-1 .9-.5 0-1-.7-1-1.6 0-.8.5-1.2 1-.9.6.3 1 1 1 1.6m457.8.1c.3 1.3-.3 1.8-2.2 1.8-1.4 0-2.6.3-2.6.7.1 1.8 2.6 4.8 3.9 4.8.8 0 1.6.6 1.9 1.2.2.7-.3 1.3-1.2 1.3s-1.6.4-1.6.9-.3 1.6-.6 2.5c-.4 1.1-.1 1.6 1 1.6 2.1 0 2 2.2-.3 4.9-1.8 2-1.9 2-2.4.2-.3-1.3-1.7-2.1-4.6-2.6-3.2-.5-4.1-1.1-4.1-2.7 0-1.2-.8-2.6-1.7-3.3-1.6-1.2-1.6-1.6-.3-4 2-3.8 9.9-9.7 12.4-9.3 1.2.2 2.2 1.1 2.4 2m115 4.1c.2 2.8-.1 3.7-1.2 3.7-1.9 0-3-1.7-1.6-2.5.8-.5.8-1.1 0-2-.7-.8-.9-1.9-.5-2.5 1.3-2.1 3-.3 3.3 3.3M380 333c0 .5-.5 1-1.1 1-.5 0-.7-.5-.4-1 .3-.6.8-1 1.1-1 .2 0 .4.4.4 1m29.2 3.2c.6 5.4.4 5.8-3.5 5.7-2.5-.1-2.7-.3-.9-.6 2-.4 2.3-1 2.2-4.1-.2-4.8-.2-5.2.9-5.2.5 0 1.1 1.9 1.3 4.2m727.9-2.2c.5 0 .9.4.9 1 0 .5-1.1 1-2.5 1-1.6 0-2.5-.6-2.5-1.6 0-1.1.5-1.4 1.6-1 .9.3 2 .6 2.5.6m-380.4 5c.3 1.7 1 3.3 1.4 3.6.5.3.9 1.2.9 2 0 1.1-.4 1.2-1.9.5-3.2-1.7-4.8-9.1-2-9.1.5 0 1.2 1.4 1.6 3m394.3 5.1c0 3-2.5 4-8 3.3-3.9-.5-4.8-.9-3.6-1.6.9-.5 1.6-2.1 1.6-3.5v-2.6l2.3 2.1c2.7 2.5 3.7 2 3.7-1.7v-2.6l2 2.5c1.1 1.4 2 3.2 2 4.1m49-5.1c.8.5 1.2 1.1.9 1.4-.8.8-7.9-.6-7.9-1.5 0-1.2 5.1-1.1 7 .1m-60.8 2.5c-.2 1.4-.8 2.5-1.3 2.5-1 0-1.2-3.4-.2-4.3 1.3-1.4 2-.6 1.5 1.8m-541.5 3c1.2 2.5 1.8 4.5 1.3 4.5-1.4 0-5-5.1-5-7.1 0-3.1 1.4-2.1 3.7 2.6m-204-2.9c-.3.3-1.2.4-1.9.1-.8-.3-.5-.6.6-.6 1.1-.1 1.7.2 1.3.5m76 1.6c-.3.8-.6.5-.6-.6-.1-1.1.2-1.7.5-1.3.3.3.4 1.2.1 1.9m138.6 1c1 1.6 1.5 2.8 1.3 2.8-1.1 0-3.6-3.3-3.6-4.7 0-.9.1-1.4.3-1.2s1.1 1.6 2 3.1m457.5-1.5c-1 .2-2.8.2-4 0-1.3-.2-.5-.4 1.7-.4 2.2-.1 3.2.1 2.3.4m35 1c-1 .2-2.8.2-4 0-1.3-.2-.5-.4 1.7-.4 2.2-.1 3.2.1 2.3.4m-40.2 2.1c1.1.6 1.8 3.9 1.5 7-.1.8-1 1.2-2.3 1-1.7-.2-2.4-1.1-2.6-3.1-.6-4.8.8-6.7 3.4-4.9m-693.9 4.5 3.4 3.7-.3 9.8c-.3 8.9-.5 9.7-2.3 9.7s-2-.8-2.3-7.5c-.3-8.9-2-11.8-7.5-12.7-4.5-.7-9.1 1.1-10.5 4.2-.6 1.2-1.4 5.5-1.8 9.4-.7 7-.7 7.2-3.3 6.9s-2.6-.4-2.6-9c0-9.7 1.2-12.2 7.6-16.6 2.9-2 4.3-2.3 9.8-2 5.8.4 6.6.7 9.8 4.1m630.5-1.8c.3 1.3.1 2.2-.3 1.9-.9-.5-1.3-4.4-.5-4.4.2 0 .6 1.1.8 2.5m94.8.5c0 .5-.7 1-1.5 1s-1.5-.5-1.5-1c0-.6.7-1 1.5-1s1.5.4 1.5 1m316 .5c0 .8-.4 1.5-1 1.5-.5 0-1-.7-1-1.5s.5-1.5 1-1.5c.6 0 1 .7 1 1.5m13.1 1.6c1.8.9 4.3 10.7 3.3 13.3-2 5.2-13.4 4.6-13.4-.7 0-1.3-.5-2.8-1.2-3.5-.9-.9-.9-1.5 0-2.4.7-.7 1.2-2.9 1.2-5V349l4.3.6c2.3.4 4.9 1 5.8 1.5m-816.7 1.8c-.2.3-1.2-.3-2.2-1.3-1.6-1.7-1.6-1.8.5-.5 1.2.7 2 1.5 1.7 1.8m275.6 1.7c0 3.9-1.5 7.4-3.1 7.4-.6 0-.8-.8-.6-1.8.3-.9.8-3.4 1.2-5.5.8-4.7 2.5-4.8 2.5-.1m144-1.2c0 1.1-1.9 1.5-2.5.6-.3-.5.1-1 .9-1 .9 0 1.6.2 1.6.4m68.8 1.9c.2 1.2-.3 1.7-1.7 1.7-1.2 0-2.1-.6-2.1-1.3 0-3.1 3.2-3.4 3.8-.4m-591 .8c2.3.7 4.2 1.6 4.2 2.1 0 1-11.1-.1-12.4-1.3-.6-.5-1.8-.9-2.8-.9s-1.8-.5-1.8-1.1c0-1.2 6.8-.6 12.8 1.2m117.1.5c.9.8-4.5.2-6.4-.6-1.4-.7-.8-.8 2-.3 2.2.3 4.2.7 4.4.9m14.1 4c1.1 2.5 2 5 2 5.4 0 1.7-8.1 3.1-13.7 2.4-5.1-.6-5.4-.5-5.1 1.4.3 2.3-5.6 9.2-8 9.2-.8 0-2.5-.9-3.9-2-3.5-2.7-4-2.6-6.2 1.9-1.5 2.9-3.2 4.3-6.6 5.7-2.5 1.1-4.5 2.3-4.5 2.7s-1 .2-2.2-.4c-2.1-1.1-1.8-1.3 3.1-2.8 4.7-1.4 5.5-2.1 7.4-6.1 2.4-4.9 6.2-6.5 8.7-3.6.7.9 2.3 1.6 3.5 1.6 2.4 0 3.5-1.7 3.5-5.5 0-3.9 2.1-4.7 9-3.6 6.7 1.1 11 .2 11-2.4 0-2.7-4.7-6.5-8.2-6.7-2.3-.1-1.6-.3 2.2-.8 3-.4 5.6-.7 5.8-.8.1-.1 1.2 1.9 2.2 4.4m774.1 2.9c-.7 1.4-1.9-3.7-1.2-5.5.3-1 .8-.4 1.1 1.5.4 1.6.4 3.4.1 4m-732.9-.4c-1 1.6-1 2.4-.2 3.5 2.7 3.1-7.6 9.5-15 9.3-1.6 0-.8-.5 2.3-1.3 6.6-1.8 9-4.2 8.3-8.4-.4-2.5 0-3.8 1.6-5.4 2.6-2.6 5-.9 3 2.3m86.8-3c0 3.4-6.9 8.7-9.4 7.2-.6-.4-.1-.9 1.4-1.3 1.5-.3 3.1-1.8 4-3.7 1.4-3.1 4-4.5 4-2.2m332 5c0 1-.7 1.9-1.5 1.9-1.5 0-2.1-3.1-.9-4.3 1.1-1 2.4.3 2.4 2.4m-31.5-.1c0 .8-1 1.6-2.2 1.8-1.8.3-2.3-.2-2.3-1.8s.5-2.1 2.3-1.8c1.2.2 2.2 1 2.2 1.8m-90.6-.1c1.6 1 .6 3.1-1.4 3.1-.7 0-1.5.5-1.7 1.2-.6 1.7-7.8 1.1-10-.9-2-1.8-1.5-2.8 1.7-3.6 3.4-.8 9.9-.7 11.4.2m40.6.8c-1.2 2.9-1.1 4.7.3 4.9.6.1 1.5.2 1.8.3.3 0-.4.9-1.7 2-1.6 1.3-3 1.6-4.8 1.1-1.4-.3-4.6-.1-7 .7-6.2 1.8-15.1 1.8-15.1-.2 0-.8 1.2-2.2 2.6-3.1 2.4-1.6 2.9-1.6 7.2-.1 5.8 2.1 7.1 2.1 11.2.1 4-2 2.2-3.7-2.9-2.7-5.1.9-3.5-1.9 2-3.4 6.3-1.7 7.2-1.6 6.4.4m-327 2.3c3.7 1.7 3.8 1.9 1.3 1.9-2.1.1-2.9.8-3.8 3.3-1.2 3.7-8 8.6-13.7 9.8-2 .5-10 .6-17.7.3-11.7-.5-14.7-.3-17.2 1-1.6.8-4.7 1.9-6.8 2.2-2.1.4-5.4 2.2-7.4 3.9l-3.6 3.1 1.9-3.3c1.4-2.3 3.1-3.6 6-4.3 2.2-.6 5.7-1.8 7.8-2.5 2.6-1 8.5-1.4 19.1-1.4 15 0 15.4-.1 21.3-3 4.5-2.2 6.4-3.9 7.4-6.2 1.1-2.7 1-3.2-.5-4.3-1.3-1-1.4-1.4-.4-1.8 1.8-.8 1.9-.8 6.3 1.3m41.5-.6c.6.8 3.7 2 6.8 2.7 4.8 1 5.3 1.3 3.2 1.9-1.6.4-2.4 1.2-2.2 2.3.3 2-2.1 2.3-4 .4-.7-.7-2.3-1.6-3.6-1.9-2.9-.8-9.2.9-9.2 2.5 0 .7 2.9 2.5 6.5 4.1 8.9 3.9 7.6 4.4-1.5.7-7.8-3.2-9-4.2-9-7.9 0-2 .5-2.2 4.5-2.2 3.8 0 4.5-.3 4.5-2 0-2.3 2.2-2.6 4-.6m48 .1c-.6.8-1.5 1.4-1.8 1.3-2.1-.2-3.2.4-3.2 1.7 0 1.7 1.6 2 2.5.5s2.5-.2 2.5 2.1c0 1.6-.3 1.8-2 .9-1.5-.8-2.1-.6-3 1-.6 1.1-2.5 2.7-4.3 3.5-3 1.5-3.1 1.5-.9-.1 2.5-1.9 2.9-5.2.7-8-.8-1-1.5-2.2-1.5-2.6 0-.8 3.3-1.5 8.4-1.7 3.3-.1 3.7.1 2.6 1.4m397 3c0 1.6-2.7 3.2-3.7 2.2-.3-.4-.3-1.3 0-2.2.8-2 3.7-2 3.7 0m5 0c.7.9 1 1.8.7 2.2-.8.7-3.7-1.5-3.7-2.8 0-1.4 1.6-1.1 3 .6m20.9 3.5c1.1 0 2.1.4 2.1 1 0 .5-.1 1-.3 1-.1 0-1.7.4-3.5.9-3.2 1-3.2 1-3.2-2.7.1-3.3.2-3.5 1.4-2 .7 1 2.3 1.8 3.5 1.8m-453.3-.6c1.5 1.2 1.7 1.7.7 2.7-1.1 1.1-1.3 1-1.3-.4 0-1-1-2.2-2.2-2.7-1.4-.5-1.7-.9-.7-.9.8-.1 2.4.5 3.5 1.3m471.3 1c.9 1.1 0 1.4-5.4 1.5-3.6.1-6.5-.1-6.5-.4 0-.6 6-2.3 8.6-2.4 1.2-.1 2.7.5 3.3 1.3m6.1.7c0 .5-.4.9-1 .9-.5 0-1-.7-1-1.6 0-.8.5-1.2 1-.9.6.3 1 1 1 1.6m-434-.1c0 1.3-1.1 1.3-3 0-1.2-.8-1.1-1 .8-1 1.2 0 2.2.4 2.2 1m-133.5 1.5c.6.2-2.4.3-6.5.3-4.8 0-6.4-.3-4.5-.7 2.8-.6 8.8-.4 11 .4M360.8 379q7.2 4.35 7.2 13.8c0 5.9-1.9 10.6-5.1 12.2-4.7 2.6-6.6-2-2.9-6.7 2.4-3.1 2.6-8 .3-10.5-3.4-3.8-4.2-2.3-4.5 7.9-.3 9.3-.4 9.8-2.5 10.1-2.2.3-2.3.1-2.3-9.2 0-5.2-.4-9.7-1-10.1-.5-.3-1.9.4-3 1.5-2 2-2.1 2.8-1.5 9.6.8 8.3.1 9.1-3.9 4.3-2.1-2.4-2.6-4.1-2.6-8.2 0-12.9 11.7-20.8 21.8-14.7m268.7-1c-2.7 1.2-4.3 1.2-2.5 0 .8-.5 2.2-.9 3-.9 1 0 .8.3-.5.9m300.5 1.5c0 2.7-1 3.1-4.1 1.4-1.6-.8-1.8-1.3-.8-2.5 2-2.4 4.9-1.7 4.9 1.1m-487 1c1.9 1 3 2.4 3.1 3.8 0 1.2.6 7.4 1.2 13.7l1.2 11.4 3.5 1.1c1.9.6 5 1.8 6.8 2.8 1.9 1 5.5 2.2 8 2.6 2.6.5 5.4 1.2 6.4 1.5 1.1.5 1.8.1 2.3-1.3.9-2.8 2.1-2.6 5 .5 3.1 3.4 3.3 8.9.4 13.8-1.1 1.9-2.8 6.3-3.7 9.8-1.5 5.5-2 6.3-4.3 6.6-3.6.4-13-3-17.3-6.3-4.5-3.4-15.1-22-16.7-29.3-1-4.4-1-6.9.4-14.5 1.4-8.1 1.5-9.3.2-10.3-1.7-1.3-2.1-7.4-.5-7.4.6 0 2.4.7 4 1.5m295.6 5c-2.3 1.7-3.6 1.9-3.6.6 0-.5.8-1.2 1.8-1.4 3.2-.9 3.7-.6 1.8.8M845 385c-1.9 1.3-3 1.3-3 0 0-.6 1-1 2.3-1 1.8 0 1.9.2.7 1m21.2.4c1.6.9 3 1.1 3.3.5.4-.5 2.8-.9 5.5-.9 3.6 0 5.2.5 5.9 1.7.8 1.4 1.2 1.5 2.5.4 2-1.7 4.6-.7 4.6 1.8 0 2.2-2.2 4.1-2.7 2.4-.3-.7-1.3-.7-3.2.3-1.9.9-3.7 1.1-6.2.5-6-1.6-10.8-2-11.4-1-.4.5-1.5.9-2.7.9-1.4 0-1.8-.5-1.4-1.5.4-1.3.2-1.4-1.4-.5-1.7.9-2 .8-2-.9 0-2.4 2.6-5.1 4.8-5.1.9 0 2.9.7 4.4 1.4m370 .8c.5 1.3-.3 7-2.5 18.8-1.9 10-5.8 39.5-6.4 49.2-.3 4.2-1 6.8-1.7 6.8-.6-.1-3.9-2.7-7.2-5.8l-6.2-5.7-1.6-27.5c-.9-15.1-1.6-29.4-1.6-31.7v-4.2l4.3-.4c10.2-.9 22.5-.7 22.9.5m-381.4 1.9c-.3 2.3-3.3 4.8-4.3 3.7-.3-.3 0-1.7.6-3.2 1.5-3.2 4.2-3.5 3.7-.5m-12.1 1.1c-.3.8-.6.5-.6-.6-.1-1.1.2-1.7.5-1.3.3.3.4 1.2.1 1.9m348.8 3c.3 2.9.5 12.2.3 20.7l-.3 15.4-8-6.4c-12.4-9.9-14.7-12.7-18.4-21.4-5.3-12.9-5.4-12.3 2-12.8 3.5-.2 10.3-.4 15.1-.5l8.7-.2zm-247.8-.8c-.7 2.1-3.7 1.9-3.7-.2 0-1.5.5-1.9 2-1.5 1.2.3 1.9 1.1 1.7 1.7m-30.5 1c2.4.8 5.2 1.6 6.3 1.9s-.2.5-2.8.6c-2.6 0-6.1-.6-7.7-1.4-5.4-2.8-2.9-3.4 4.2-1.1m235.8 4.8c4.2 7.6 7.5 14.7 6.1 13.3-2.3-2.5-13.1-17.6-13.1-18.5 0-.6.8-1 1.8-1 1.1 0 3 2.2 5.2 6.2M562.5 394c2.2.8 2.4 1.3 1.5 3-1.1 2.1-6.4 2.8-7.5 1-.4-.6.5-1 1.9-1s2.6-.4 2.6-1c0-1.2-4.5-2.4-5.9-1.5-.6.3-1.1.1-1.1-.4 0-1.4 5-1.4 8.5-.1m309.8 4.1c-1.6 1.6-3.3.2-3.3-2.9v-2.6l2.2 2.2c1.6 1.6 1.9 2.5 1.1 3.3m94.7-1.6c-.7.8-1.9 1.5-2.7 1.5-1.3 0-1.3-.3-.3-1.5.7-.8 1.9-1.5 2.7-1.5 1.3 0 1.3.3.3 1.5m-388 .3c0 .4-2.1.5-4.6.3-3.6-.2-4.5 0-4.2 1 .3.8 1.8 1.5 3.4 1.7s3.3.8 3.8 1.2c1.5 1.5-6.7-.1-8.3-1.5-.7-.7-1-1.8-.7-2.4.8-1.2 10.6-1.5 10.6-.3m192.3 1.7c-.3.9-.8 1.4-1 1.1-.3-.3-.2-.9.2-1.5.9-1.6 1.5-1.3.8.4m-187.8 3.3c-.8.8-2.5-1-2.5-2.6 0-1.3.2-1.3 1.4.4.8 1 1.3 2.1 1.1 2.2m269.5-1.9c0 2.2-1.6 3.6-2.4 2.2-.8-1.2.3-4.1 1.5-4.1.5 0 .9.9.9 1.9m352.4.5c.9 3.7 2.6 28.9 3.1 47.7.4 14.2.8 17.6 2.4 20.7 2 3.9 2.7 3.4 3.3-2.1.5-4.4 2.3-3.2 2.6 1.7.3 4.2.1 4.5-3.2 6.1-1.9.9-4.5 1.5-5.7 1.3-2.2-.3-2.3-.8-2.6-9.3-.1-5-.7-18-1.3-29s-1.2-22.7-1.4-26c-.6-10.5 1.2-17.5 2.8-11.1m-615.7-.8c-.3.3-1.2.4-1.9.1-.8-.3-.5-.6.6-.6 1.1-.1 1.7.2 1.3.5m9.5 2.4c.3 1.6.1 3-.4 3-.4 0-.8-1.4-.8-3 0-1.7.2-3 .4-3s.6 1.3.8 3m-4.2-1c0 .5-.2 1-.4 1-.3 0-.8-.5-1.1-1-.3-.6-.1-1 .4-1 .6 0 1.1.4 1.1 1m-5 2c1.2.8 1.1 1-.7 1-1.3 0-2.3-.5-2.3-1 0-1.3 1.1-1.3 3 0m18.4.2c-.4.6.2 1.8 1.2 2.6 1.8 1.4 1.8 1.4-.1.7-1.1-.4-2.8-1-3.7-1.2-2.8-.8-2.2-3.3.8-3.3 1.6 0 2.3.4 1.8 1.2m8.6 2c0 2.5-.3 2.9-1 1.8-1.3-2-1.3-5 0-5 .6 0 1 1.5 1 3.2m5-1.7c0 .8.5 1.5 1.1 1.5.5 0 .7-.5.4-1-.3-.6 0-1 .8-1 .7 0 1.4.7 1.4 1.5 0 .9-1 1.5-2.4 1.5-1.5 0-2.2.4-1.7 1.1.3.6 1.5.9 2.5.6s2.2-.1 2.5.4-1.1.9-3 .9c-3.4 0-3.6-.2-3.6-3.5 0-1.9.5-3.5 1-3.5.6 0 1 .7 1 1.5m189.4 7.8c1.8 1.2 2.6 2.6 2.6 4.7 0 4-2.9 5.4-9.9 4.7-4.4-.5-6.1-1.2-7.8-3.2-2.7-3.1-2.9-4.8-.6-7 2.1-2.2 11.9-1.7 15.7.8m427.1 23.9c-2.6 17.6-4.5 23.6-4.5 14.2 0-5.5 2.3-23.8 4-32.4 3.4-16.6 3.8-3.5.5 18.2m-415.2-24.5-4.3.4v5.7c0 6.7-1.8 6-2-.8-.1-2.5-.1-4.8-.1-5.3.1-.4 2.5-.6 5.4-.5 5 .1 5 .2 1 .5m9.1.9c2.1 2.1 2 3-.6 4.8-1.8 1.3-1.9 1.8-.8 3.1 2.4 2.9.1 2.7-4.6-.4l-4.7-3.1h4.2c4.5 0 6.3-1.9 4.1-4.5-1.7-2 .4-2 2.4.1m17 4c2.7 3 4.5 5.8 4.1 6.2s-2.6-1.5-5-4.3c-2.4-2.7-4.5-4.8-4.7-4.5s-1.7 2.4-3.2 4.7c-2.5 3.8-4.6 5.5-4.6 3.7s6.7-11.4 7.9-11.4c.4 0 2.9 2.5 5.5 5.6M869 411c1.9.6 1 .8-3.6.9-6.5.1-8.9 1.5-8.2 4.8.5 2.6 4.7 4.4 9.6 4.1 2.3-.2 4.2 0 4.2.4 0 .5-2.7.8-6 .8-4.7 0-6.4-.4-8-2-2.3-2.3-2.6-4.9-.7-7.2 2.1-2.7 7.4-3.5 12.7-1.8m-501 3.9v3.9l-10.6.4c-9.1.3-10.8.6-12 2.2-.8 1.1-1.4 2.8-1.4 3.8 0 1.5.9 1.8 5.3 1.8 2.8 0 8.2.3 12 .7 5.5.5 6.7.9 6.7 2.4 0 4.8-.4 4.9-15 4.9-15.8 0-15 .5-15-9.5 0-5.7.3-6.8 3-9.9 3.6-4.1 4.4-4.3 17.3-4.5l9.7-.1zm508.2.8.3 4.8 5.3.3c2.8.2 5.2.8 5.2 1.3 0 .6-2.6.9-6.2.7l-6.3-.3-.3-5.8c-.2-3.3.1-5.7.7-5.7.5 0 1.1 2.1 1.3 4.7m22.5-4c-4.8.3-5.8.7-5.5 2.1.2 1.3 1.7 1.8 5.8 2.1l5.5.5-5.5.5c-4 .4-5.5 1-5.5 2.1s1.6 1.7 6 2.1c3.3.3 5.8.7 5.5.8-1.7.8-5.1 1-9.1.5-4.2-.5-4.7-.9-5.3-3.6-.3-1.6-.3-4.1 0-5.4.6-2.3 1-2.4 7.3-2.2l6.6.2zm-511 2.9c-.3.3-1.2.4-1.9.1-.8-.3-.5-.6.6-.6 1.1-.1 1.7.2 1.3.5m608.3 1c0 1.2-2.4 5.1-5.1 8.2-3.2 3.6-4.2 8.5-1.4 6.2 2.7-2.3 3.3.2 1.6 7-.8 3.6-1.7 5.8-1.9 5-.3-1.6-4.1-4.5-4.8-3.8-.2.3-.8 5.1-1.4 10.9-.6 5.7-1.3 11.4-1.6 12.6-.6 3.1-2.4 2.9-2.4-.2 0-1.4-1.1-3.8-2.5-5.3-2-2.2-2.5-3.7-2.5-8 0-6.7 1.1-8.7 5.5-10.2 4.2-1.4 4.3-2.1 1-7.9-3.3-5.7-3.2-7.7.8-9.8 7.2-3.9 14.7-6.3 14.7-4.7M501.3 427c-.2 4.4-.9 11.7-1.7 16.2-1.1 6.3-1.2 8.6-.3 9.8q1.05 1.5-.9-.3c-1.1-.9-2.6-1.7-3.2-1.7-.8 0-1-.9-.7-2.3.2-1.2 1.1-8.4 1.9-16 1.6-14.7 2.1-16.6 4-14.7.7.7 1 4.1.9 9m460.4-5.7c-.4 1.3-1.7 2.8-2.9 3.3-2.6 1-9.8.7-9.8-.5 0-1.4 11.4-7 12.4-6.1.5.5.6 1.9.3 3.3M847 419c0 .5-.9 1-2 1s-2-.5-2-1c0-.6.9-1 2-1s2 .4 2 1m313.2 3.7c2.9 2.4 11 10.7 24.2 25 2.1 2.4 2.6 3.3 1.4 3.3-.8 0-5.1-3.7-9.4-8.2-4.4-4.5-9.8-10-12.2-12.3-5.1-4.7-9.7-10.5-8.4-10.5.5 0 2.5 1.2 4.4 2.7M437.4 435c.5 3.3.4 4.1-.3 3-.7-1-1.1-1.1-1.1-.3 0 .7-.4 1.3-.9 1.3-1 0-3.1-7.6-2.6-9.4.2-.6.7-2.5 1.1-4.1l.7-3 1.2 4c.7 2.3 1.6 6.1 1.9 8.5m506.5-5.4c-1.2 1.5-.9 1.6 3.4 1.3 4.3-.4 4.6-.3 4.1 1.6-.4 1.1-.8 2.2-1.1 2.5-.9.9-20.5 1.2-21.4.3-1.4-1.4 1.6-4.3 4.4-4.4 1.2 0 3.8-.6 5.7-1.3 5.2-2 6.6-2 4.9 0m249.1 18.3c0 2.3-.4 4.1-.9 4.1-1 0-11.1-17.5-11.1-19.3 0-.7 2.7 1.6 6 5 5.4 5.4 6 6.5 6 10.2m-803.5-1.4c-.4 4.2-1 7.4-1.2 7.1-.3-.3-.2-3.9.2-8.1s.9-7.4 1.2-7.1c.3.2.2 3.9-.2 8.1m68.3-2.3c.7.7 1.2.9 1.2.5 0-1.8 3.8 1.4 4.2 3.5.4 2 0 2.3-2.4 2.3-4.4 0-8.4-4.5-6.1-6.8.9-1 1.7-.9 3.1.5M406 454.4c-1.2 3.7-3.1 4.6-9.5 4.5-3.5 0-3.8-.2-2.1-1.2 1.1-.7 4.2-3.5 7-6.2 4.7-4.6 5.1-4.8 5.4-2.7.2 1.2-.2 3.8-.8 5.6m77-3.4c1.9.6 1.2.8-3 .8-3 0-6.4-.3-7.5-.8-2.6-1.1 7-1.1 10.5 0m-111.3 2.2c-.3.8-.6.5-.6-.6-.1-1.1.2-1.7.5-1.3.3.3.4 1.2.1 1.9m819 3.3c1.9 1.4 4.9 8.3 3.9 9.2-.7.7-6-1.9-7.2-3.5-2-2.6-1.7-7.2.5-7.2.4 0 1.6.7 2.8 1.5m45.7 9.7c.7 1.5.3 1.8-2.3 1.8-3.5 0-3.9-1.3-2-7.1 2-6.3 2.3-6.4 2.9-1.4.4 2.7 1 5.8 1.4 6.7M1225 471c0 1.1-4.2 3-6.3 3-1.7-.1 3.2-4 4.9-4 .8 0 1.4.5 1.4 1m-719.1 2.2c2.8.6 5.1 1.5 5.1 1.9s-2.9 1.1-6.5 1.4c-3.6.4-6.8 1.1-7.1 1.6-1 1.8-6.3 1-7.4-1.1-1.2-2.2-.7-2.6 5.4-4 4.5-1.1 4.9-1.1 10.5.2m757.7 5.5c-.8.8-3.6-.5-3.6-1.7 0-.7.6-.7 2.1 0 1.1.7 1.8 1.4 1.5 1.7m-40.2 6.9c3.5 1.4.5 3.2-7.9 4.8-3.7.8-10.8-3-8.4-4.5 1.6-1 13.9-1.2 16.3-.3m157.2 3.6c-.3 1.3-.6 3-.7 3.8 0 1-.3.8-.8-.5-.9-2.3-.3-5.5 1.1-5.5.6 0 .8 1 .4 2.2M898 490.5c0 1.3-.4 1.4-2 .5-1.1-.6-2-1.3-2-1.5 0-.3.9-.5 2-.5s2 .7 2 1.5m14.5.5c-.6 1-7 3-9.8 3-1.1 0-1.7-.6-1.5-1.3.4-1 3.2-1.7 10.6-2.5.7-.1 1.1.2.7.8m416.5-.6c0 .2-.3 1.1-.6 2-.9 2.3-3.4 2-3.4-.4 0-1.3.7-2 2-2 1.1 0 2 .2 2 .4m7.1 8.7c-1 2.3-1 2.3-1-.7-.1-1.7.2-3.4.7-3.8 1.1-1.2 1.4 1.8.3 4.5m-16.1 23.4c-1.4 4.2-3.6 6.1-2.6 2.2 1.1-4.7 2.8-8.2 3.3-7 .3.7-.1 2.9-.7 4.8m-6 1.4c0 .5-.6 4-1.4 7.8-1.6 7.7-1.8 14-.5 14.9 1.5.9 1 2.4-.9 2.4-2.5 0-4.2-1.9-4.2-4.8 0-2 3.2-16.1 4.5-20 .5-1.4 2.5-1.7 2.5-.3m90.7 2.3c-.3.8-.6.5-.6-.6-.1-1.1.2-1.7.5-1.3.3.3.4 1.2.1 1.9M1332 541c-.8 3.8-1.8 6-2.6 6s-1.4-.2-1.4-.5c0-.4 1.6-5.6 3.6-11.4.2-.8.7-1.1 1.1-.8.3.4 0 3.4-.7 6.7m32.4 4.7c-.6 2.4-.8 2.5-1.9.9-1-1.3-1-2.4-.2-4.7 1.1-2.7 1.2-2.8 1.9-.8.4 1.1.5 3.2.2 4.6m-23.6-2c-1.6.2-4 .2-5.5 0-1.6-.2-.3-.4 2.7-.4s4.3.2 2.8.4m13.9.9c-.3.3-1.2.4-1.9.1-.8-.3-.5-.6.6-.6 1.1-.1 1.7.2 1.3.5"/><path d="M350.1 246.9c-2.5 2.5-3.5 7.7-2.9 14.3.7 6.9 3 8.8 10.8 8.8 7.6 0 8.4-1.1 8.9-11.6.3-7.8.1-8.4-2.3-10.8-3.3-3.4-11.5-3.7-14.5-.7M799 261.5c-2.4 2.9-.4 4.5 5.8 4.5s9-1.6 7.8-4.5c-.8-2.1-11.8-2.1-13.6 0M353 327c0 2.8.5 5 1 5 1.8 0 9-4 9-5s-7.2-5-9-5c-.5 0-1 2.2-1 5m243-29.9c0 .5.5.7 1 .4.6-.3 1-.8 1-1.1 0-.2-.4-.4-1-.4-.5 0-1 .5-1 1.1m.5 2.9c-.7 1.2 2.2 1.2 5 0 1.7-.7 1.5-.9-1.2-.9-1.7-.1-3.5.3-3.8.9m816.7 55.2c.2 1.5 1.1 2.4 2.6 2.6 2 .3 2.3 0 2-2-.2-1.5-1.1-2.4-2.6-2.6-2-.3-2.3 0-2 2"/><path d="M1419.5 355c-.3.5-.3 2.7 0 4.7.6 3.4.5 3.6-.8 2-1.5-1.8-5.7-2.4-5.7-.8 0 3 1.4 4.1 5.1 4.1h3.9v-4.9c0-4.8-1.2-7.2-2.5-5.1m-620.7 56.1c-2.3 1.3-2.3 4.2 0 6.2 2 1.8 9.7 2.3 12.1.8 1.8-1.2.7-5.8-1.7-6.4-4.5-1.3-8.9-1.5-10.4-.6M1394.2 253c0 1.4.2 1.9.5 1.2.2-.6.2-1.8 0-2.5-.3-.6-.5-.1-.5 1.3M1049 264.9c0 .5.7 1.2 1.6 1.5 1.4.5 1.5.4.4-.9-1.4-1.7-2-1.9-2-.6m350.1 11.7c0 1.1.3 1.4.6.6.3-.7.2-1.6-.1-1.9-.3-.4-.6.2-.5 1.3m-84.6 49.9c5 .7 10.7 1.6 12.8 1.9 2.9.5 3.7.3 3.7-.9s-1.3-1.5-5.7-1.5c-3.2 0-8.9-.2-12.8-.5-6.9-.4-6.9-.4 2 1m73.4 27.8c-1.1 2.4-1 3 .4 4.4 1.3 1.3 1.9 1.4 3.1.3 2-1.6 2-2.3-.3-5.1l-1.9-2.4z"/></svg>